<svg width="132" height="23" viewBox="0 0 132 23" fill="none" xmlns="http://www.w3.org/2000/svg">
<path d="M10.1875 9.86736C12.0313 10.0104 13.5134 10.642 14.6336 11.7622C15.7773 12.8585 16.3491 14.229 16.3491 15.8736C16.3491 17.1368 16.0457 18.2808 15.4388 19.3057C14.832 20.3306 13.9918 21.1409 12.9182 21.7368C11.8679 22.3088 10.6893 22.5948 9.38233 22.5948C8.61214 22.5948 7.77193 22.5591 6.8617 22.4876C6.53496 22.4637 6.14986 22.4399 5.70642 22.4161C5.26297 22.3922 4.77285 22.3803 4.23605 22.3803L1.85546 22.4161C1.43536 22.4399 0.840209 22.4518 0.0700174 22.4518C0.0233391 22.4518 0 22.3803 0 22.2373C0 22.0943 0.0233391 22.0228 0.0700174 22.0228C0.956904 22.0228 1.6104 21.9632 2.0305 21.844C2.45061 21.701 2.74235 21.4627 2.90572 21.129C3.0691 20.7953 3.15078 20.271 3.15078 19.556V3.00311C3.15078 2.28808 3.0691 1.76373 2.90572 1.43005C2.76569 1.09637 2.48562 0.869947 2.06551 0.750776C1.64541 0.607771 1.00358 0.536269 0.140035 0.536269C0.0700174 0.536269 0.0350088 0.464767 0.0350088 0.321762C0.0350088 0.178757 0.0700174 0.107255 0.140035 0.107255L1.85546 0.143005C2.8357 0.190673 3.62923 0.214507 4.23605 0.214507C4.65616 0.214507 5.04125 0.20259 5.39134 0.178756C5.76476 0.154922 6.07984 0.131089 6.33657 0.107255C7.06009 0.0357515 7.73692 0 8.36708 0C10.3276 0 11.7979 0.440933 12.7782 1.3228C13.7584 2.18083 14.2485 3.31295 14.2485 4.71917C14.2485 5.86321 13.8868 6.88808 13.1633 7.79378C12.4398 8.67565 11.4478 9.36684 10.1875 9.86736ZM7.59689 0.536269C6.99007 0.536269 6.53496 0.583937 6.23155 0.679274C5.95148 0.774611 5.74143 1.00104 5.60139 1.35855C5.46136 1.71606 5.39134 2.28808 5.39134 3.07461V9.86736L6.96673 9.90311C8.67049 9.90311 9.9308 9.46218 10.7477 8.58031C11.5645 7.67461 11.973 6.4829 11.973 5.00518C11.973 3.67047 11.6112 2.59793 10.8877 1.78757C10.1875 0.953368 9.09059 0.536269 7.59689 0.536269ZM8.8572 21.9513C10.561 21.9513 11.8213 21.5104 12.6381 20.6285C13.4783 19.7228 13.8985 18.4358 13.8985 16.7674C13.8985 14.956 13.3733 13.4902 12.3231 12.3699C11.2961 11.2497 9.87245 10.6777 8.052 10.6539C7.30515 10.6301 6.41826 10.6539 5.39134 10.7254V19.556C5.39134 20.1756 5.47303 20.6523 5.6364 20.986C5.82311 21.3197 6.16153 21.5699 6.65165 21.7368C7.16511 21.8798 7.9003 21.9513 8.8572 21.9513Z" fill="black"/>
<path d="M41.997 22.0228C42.0437 22.0228 42.067 22.0943 42.067 22.2373C42.067 22.3803 42.0437 22.4518 41.997 22.4518H37.4809C36.8974 22.4518 35.8005 21.4389 34.1901 19.413C32.603 17.3632 30.6659 14.515 28.3786 10.8684C27.8185 11.0352 27.1884 11.1187 26.4882 11.1187C26.0447 11.1187 25.5196 11.0948 24.9128 11.0472V19.556C24.9128 20.2948 24.9828 20.8311 25.1228 21.1648C25.2629 21.4984 25.5313 21.7249 25.928 21.844C26.3481 21.9632 27.0016 22.0228 27.8885 22.0228C27.9585 22.0228 27.9936 22.0943 27.9936 22.2373C27.9936 22.3803 27.9585 22.4518 27.8885 22.4518C27.165 22.4518 26.5932 22.4399 26.1731 22.4161L23.7575 22.3803L21.3769 22.4161C20.9568 22.4399 20.3617 22.4518 19.5915 22.4518C19.5448 22.4518 19.5214 22.3803 19.5214 22.2373C19.5214 22.0943 19.5448 22.0228 19.5915 22.0228C20.4784 22.0228 21.1318 21.9632 21.552 21.844C21.9721 21.701 22.2638 21.4627 22.4272 21.129C22.5905 20.7953 22.6722 20.271 22.6722 19.556V3.00311C22.6722 2.28808 22.5905 1.76373 22.4272 1.43005C22.2871 1.09637 22.0071 0.869947 21.587 0.750776C21.1902 0.607771 20.5484 0.536269 19.6615 0.536269C19.5915 0.536269 19.5565 0.464767 19.5565 0.321762C19.5565 0.178757 19.5915 0.107255 19.6615 0.107255L21.3769 0.143005C22.3572 0.190673 23.1507 0.214507 23.7575 0.214507C24.1776 0.214507 24.5744 0.20259 24.9478 0.178756C25.3212 0.154922 25.648 0.131089 25.928 0.107255C26.6749 0.0357515 27.3517 0 27.9585 0C29.849 0 31.3077 0.393264 32.3346 1.17979C33.3616 1.96632 33.875 3.06269 33.875 4.46891C33.875 5.61295 33.5483 6.69741 32.8948 7.72228C32.2413 8.72332 31.3777 9.52176 30.3041 10.1176C32.288 13.1446 33.9567 15.5161 35.3104 17.2321C36.664 18.9244 37.866 20.1518 38.9163 20.9145C39.9665 21.6534 40.9934 22.0228 41.997 22.0228ZM24.9128 10.1534C25.4963 10.2487 26.1848 10.2964 26.9783 10.2964C28.5887 10.2964 29.744 9.95078 30.4442 9.25959C31.1443 8.54456 31.4944 7.36477 31.4944 5.72021C31.4944 2.26425 30.0707 0.536269 27.2234 0.536269C26.5932 0.536269 26.1148 0.595854 25.788 0.715025C25.4846 0.810362 25.2629 1.03679 25.1228 1.3943C24.9828 1.72798 24.9128 2.28808 24.9128 3.07461V10.1534Z" fill="black"/>
<path d="M59.8206 4.0399C59.8206 1.70414 58.8053 0.536269 56.7748 0.536269C56.7048 0.536269 56.6698 0.464767 56.6698 0.321762C56.6698 0.178757 56.7048 0.107255 56.7748 0.107255L58.2802 0.143005C59.1204 0.190673 59.7855 0.214507 60.2757 0.214507C60.6724 0.214507 61.2442 0.190673 61.9911 0.143005L63.4615 0.107255C63.5081 0.107255 63.5315 0.178757 63.5315 0.321762C63.5315 0.464767 63.5081 0.536269 63.4615 0.536269C61.5943 0.536269 60.6608 1.70414 60.6608 4.0399V14.1933C60.6608 16.9342 59.9139 19.0793 58.4202 20.6285C56.9265 22.1539 54.9193 22.9166 52.3987 22.9166C50.6716 22.9166 49.1546 22.571 47.8476 21.8798C46.5639 21.1886 45.5603 20.2114 44.8368 18.9482C44.1367 17.6611 43.7866 16.1596 43.7866 14.4435V3.00311C43.7866 2.28808 43.7166 1.76373 43.5765 1.43005C43.4365 1.09637 43.1564 0.869947 42.7363 0.750776C42.3395 0.607771 41.6977 0.536269 40.8108 0.536269C40.7642 0.536269 40.7408 0.464767 40.7408 0.321762C40.7408 0.178757 40.7642 0.107255 40.8108 0.107255L42.5263 0.143005C43.5065 0.190673 44.3 0.214507 44.9069 0.214507C45.5603 0.214507 46.3772 0.190673 47.3575 0.143005L49.0379 0.107255C49.1079 0.107255 49.1429 0.178757 49.1429 0.321762C49.1429 0.464767 49.1079 0.536269 49.0379 0.536269C48.1743 0.536269 47.5325 0.607771 47.1124 0.750776C46.6923 0.893782 46.4122 1.14404 46.2722 1.50155C46.1322 1.83523 46.0621 2.35958 46.0621 3.07461V13.1922C46.0621 15.9808 46.6806 18.1259 47.9176 19.6275C49.1779 21.1052 50.9283 21.844 53.1689 21.844C55.2694 21.844 56.9032 21.1767 58.0701 19.842C59.2371 18.4834 59.8206 16.6124 59.8206 14.229V4.0399Z" fill="black"/>
<path d="M74.8478 22.5948C74.1709 22.5948 73.3891 22.5591 72.5022 22.4876C72.1754 22.4637 71.7553 22.4399 71.2419 22.4161C70.7517 22.3922 70.2033 22.3803 69.5965 22.3803L67.2159 22.4161C66.7958 22.4399 66.2123 22.4518 65.4654 22.4518C65.4188 22.4518 65.3954 22.3803 65.3954 22.2373C65.3954 22.0943 65.4188 22.0228 65.4654 22.0228C66.3523 22.0228 66.9941 21.9632 67.3909 21.844C67.811 21.7249 68.0911 21.4984 68.2311 21.1648C68.3945 20.8073 68.4762 20.271 68.4762 19.556V3.00311C68.4762 2.28808 68.4062 1.76373 68.2661 1.43005C68.1261 1.09637 67.846 0.869947 67.4259 0.750776C67.0292 0.607771 66.3873 0.536269 65.5004 0.536269C65.4538 0.536269 65.4304 0.464767 65.4304 0.321762C65.4304 0.178757 65.4538 0.107255 65.5004 0.107255L67.2509 0.143005C68.2311 0.190673 69.013 0.214507 69.5965 0.214507C70.4833 0.214507 71.3586 0.178756 72.2221 0.107255C73.249 0.0595854 73.9609 0.0357508 74.3576 0.0357508C76.7849 0.0357508 78.9321 0.512435 80.7992 1.4658C82.6664 2.41917 84.1134 3.71813 85.1403 5.36269C86.1906 7.00725 86.7157 8.8544 86.7157 10.9041C86.7157 13.2161 86.1789 15.2658 85.1053 17.0534C84.0551 18.8171 82.6197 20.1876 80.7992 21.1648C78.9788 22.1181 76.995 22.5948 74.8478 22.5948ZM74.4977 22.0585C76.3648 22.0585 78.0219 21.6653 79.4689 20.8788C80.9159 20.0684 82.0362 18.8886 82.8297 17.3394C83.6466 15.7663 84.0551 13.8834 84.0551 11.6907C84.0551 9.6171 83.67 7.7342 82.8998 6.04197C82.1296 4.34974 81.0326 3.01503 79.6089 2.03782C78.1853 1.06062 76.5398 0.57202 74.6727 0.57202C73.6691 0.57202 72.8873 0.631605 72.3271 0.750776C71.7903 0.869947 71.3936 1.10829 71.1368 1.4658C70.8801 1.82332 70.7517 2.35958 70.7517 3.07461V19.1627C70.7517 19.8777 70.8451 20.4378 71.0318 20.843C71.2419 21.2482 71.6153 21.558 72.1521 21.7725C72.7122 21.9632 73.4941 22.0585 74.4977 22.0585Z" fill="black"/>
<path d="M105.074 17.1249C105.074 17.0772 105.121 17.0534 105.215 17.0534C105.285 17.0534 105.343 17.0653 105.39 17.0891C105.46 17.113 105.495 17.1487 105.495 17.1964C105.285 18.6979 105.18 20.271 105.18 21.9155C105.18 22.1062 105.133 22.2492 105.039 22.3446C104.969 22.4161 104.829 22.4518 104.619 22.4518H89.9507C89.9041 22.4518 89.8807 22.3803 89.8807 22.2373C89.8807 22.0943 89.9041 22.0228 89.9507 22.0228C90.8376 22.0228 91.4794 21.9632 91.8762 21.844C92.2963 21.7249 92.5764 21.4984 92.7164 21.1648C92.8798 20.8073 92.9615 20.271 92.9615 19.556V3.00311C92.9615 2.28808 92.8798 1.76373 92.7164 1.43005C92.5764 1.09637 92.2963 0.869947 91.8762 0.750776C91.4794 0.607771 90.8376 0.536269 89.9507 0.536269C89.9041 0.536269 89.8807 0.464767 89.8807 0.321762C89.8807 0.178757 89.9041 0.107255 89.9507 0.107255H104.024C104.234 0.107255 104.339 0.214508 104.339 0.429014L104.409 4.82642C104.409 4.89793 104.351 4.9456 104.234 4.96943C104.118 4.96943 104.048 4.93368 104.024 4.86218C103.954 3.59896 103.581 2.62176 102.904 1.93057C102.227 1.21554 101.329 0.858031 100.208 0.858031H98.0728C97.2559 0.858031 96.6491 0.929533 96.2523 1.07254C95.8789 1.19171 95.6105 1.41813 95.4471 1.75181C95.3071 2.06166 95.237 2.53834 95.237 3.18186V10.4394H99.5081C100.628 10.4394 101.422 10.2487 101.889 9.86736C102.379 9.48601 102.624 8.84249 102.624 7.93679C102.624 7.88912 102.694 7.86528 102.834 7.86528C102.974 7.86528 103.044 7.88912 103.044 7.93679L103.009 10.8326C103.009 11.5238 103.021 12.0482 103.044 12.4057L103.079 14.1218C103.079 14.1694 103.009 14.1933 102.869 14.1933C102.729 14.1933 102.659 14.1694 102.659 14.1218C102.659 13.0731 102.402 12.3223 101.889 11.8694C101.399 11.4166 100.57 11.1902 99.4031 11.1902H95.237V19.413C95.237 20.0803 95.3071 20.5689 95.4471 20.8788C95.5871 21.1886 95.8439 21.4031 96.2173 21.5223C96.5907 21.6415 97.1742 21.701 97.9677 21.701H100.768C101.889 21.701 102.822 21.2959 103.569 20.4855C104.316 19.6751 104.818 18.5549 105.074 17.1249Z" fill="black"/>
<path d="M131.895 0.107255C131.965 0.107255 132 0.178757 132 0.321762C132 0.464767 131.965 0.536269 131.895 0.536269C130.915 0.536269 130.203 0.810362 129.759 1.35855C129.316 1.90674 129.094 2.80052 129.094 4.0399V22.8808C129.094 22.9285 129.036 22.9642 128.919 22.9881C128.803 23.0119 128.721 23 128.674 22.9523L112.57 3.03886L112.255 2.68135V18.5549C112.255 19.7943 112.465 20.6881 112.885 21.2363C113.329 21.7606 114.029 22.0228 114.986 22.0228C115.056 22.0228 115.091 22.0943 115.091 22.2373C115.091 22.3803 115.056 22.4518 114.986 22.4518C114.402 22.4518 113.959 22.4399 113.655 22.4161L111.905 22.3803L110.12 22.4161C109.793 22.4399 109.314 22.4518 108.684 22.4518C108.638 22.4518 108.614 22.3803 108.614 22.2373C108.614 22.0943 108.638 22.0228 108.684 22.0228C109.688 22.0228 110.4 21.7606 110.82 21.2363C111.24 20.6881 111.45 19.7943 111.45 18.5549V1.82332C110.54 0.965285 109.618 0.536269 108.684 0.536269C108.614 0.536269 108.579 0.464767 108.579 0.321762C108.579 0.178757 108.614 0.107255 108.684 0.107255L109.98 0.143005C110.26 0.166839 110.645 0.178756 111.135 0.178756C111.648 0.178756 112.068 0.166839 112.395 0.143005C112.722 0.119172 112.979 0.107255 113.165 0.107255C113.352 0.107255 113.48 0.154922 113.55 0.250258C113.644 0.321761 113.784 0.500518 113.971 0.786529C114.251 1.21554 114.531 1.60881 114.811 1.96632L128.289 18.8767V4.0399C128.289 2.80052 128.079 1.90674 127.659 1.35855C127.262 0.810362 126.585 0.536269 125.628 0.536269C125.582 0.536269 125.558 0.464767 125.558 0.321762C125.558 0.178757 125.582 0.107255 125.628 0.107255L126.994 0.143005C127.694 0.190673 128.266 0.214507 128.709 0.214507C129.129 0.214507 129.713 0.190673 130.46 0.143005L131.895 0.107255Z" fill="black"/>
</svg>
