<svg width="21" height="21" viewBox="0 0 21 21" fill="none" xmlns="http://www.w3.org/2000/svg">
<path d="M19.875 14.6667H5.29168C5.01541 14.6667 4.75046 14.557 4.55511 14.3616C4.35976 14.1663 4.25001 13.9013 4.25001 13.625C4.25001 13.3488 4.35976 13.0838 4.55511 12.8885C4.75046 12.6931 5.01541 12.5834 5.29168 12.5834H16.1667C16.8632 12.5834 17.5398 12.3508 18.0889 11.9224C18.6381 11.494 19.0284 10.8944 19.1979 10.2188L20.9167 3.45837C20.9557 3.30463 20.9591 3.14401 20.9266 2.98876C20.8941 2.83351 20.8266 2.68773 20.7292 2.56254C20.6279 2.43414 20.4978 2.33139 20.3494 2.26262C20.201 2.19386 20.0385 2.161 19.875 2.16671H5.04168C4.82677 1.55884 4.4291 1.03233 3.9032 0.659352C3.3773 0.286373 2.74891 0.085186 2.10418 0.083374H1.12501C0.848743 0.083374 0.583791 0.193121 0.388441 0.388471C0.19309 0.583821 0.0833435 0.848774 0.0833435 1.12504C0.0833435 1.40131 0.19309 1.66626 0.388441 1.86161C0.583791 2.05696 0.848743 2.16671 1.12501 2.16671H2.10418C2.34213 2.15977 2.57528 2.23455 2.76481 2.3786C2.95434 2.52264 3.08881 2.72725 3.14584 2.95837L3.20834 3.45837L5.01043 10.5C4.18163 10.5373 3.40158 10.9023 2.84191 11.5148C2.28223 12.1272 1.98876 12.9369 2.02605 13.7657C2.06335 14.5945 2.42836 15.3745 3.04078 15.9342C3.6532 16.4939 4.46288 16.7873 5.29168 16.75H5.47918C5.30786 17.2221 5.25281 17.7284 5.31869 18.2262C5.38457 18.724 5.56943 19.1986 5.85763 19.6098C6.14583 20.021 6.52888 20.3567 6.97434 20.5884C7.41979 20.8202 7.91454 20.9412 8.41668 20.9412C8.91882 20.9412 9.41356 20.8202 9.85902 20.5884C10.3045 20.3567 10.6875 20.021 10.9757 19.6098C11.2639 19.1986 11.4488 18.724 11.5147 18.2262C11.5805 17.7284 11.5255 17.2221 11.3542 16.75H13.8125C13.6412 17.2221 13.5861 17.7284 13.652 18.2262C13.7179 18.724 13.9028 19.1986 14.191 19.6098C14.4792 20.021 14.8622 20.3567 15.3077 20.5884C15.7531 20.8202 16.2479 20.9412 16.75 20.9412C17.2521 20.9412 17.7469 20.8202 18.1924 20.5884C18.6378 20.3567 19.0209 20.021 19.3091 19.6098C19.5973 19.1986 19.7821 18.724 19.848 18.2262C19.9139 17.7284 19.8588 17.2221 19.6875 16.75H19.875C20.1513 16.75 20.4162 16.6403 20.6116 16.4449C20.8069 16.2496 20.9167 15.9846 20.9167 15.7084C20.9167 15.4321 20.8069 15.1672 20.6116 14.9718C20.4162 14.7765 20.1513 14.6667 19.875 14.6667ZM18.5417 4.25004L17.1771 9.70837C17.1201 9.9395 16.9856 10.1441 16.7961 10.2882C16.6065 10.4322 16.3734 10.507 16.1354 10.5H7.14584L5.58334 4.25004H18.5417ZM8.41668 18.8334C8.21065 18.8334 8.00926 18.7723 7.83796 18.6578C7.66666 18.5434 7.53314 18.3807 7.4543 18.1903C7.37546 18 7.35483 17.7906 7.39503 17.5885C7.43522 17.3864 7.53443 17.2008 7.68011 17.0551C7.82579 16.9095 8.01139 16.8102 8.21346 16.7701C8.41552 16.7299 8.62497 16.7505 8.81531 16.8293C9.00564 16.9082 9.16833 17.0417 9.28279 17.213C9.39725 17.3843 9.45834 17.5857 9.45834 17.7917C9.45834 18.068 9.3486 18.3329 9.15325 18.5283C8.9579 18.7236 8.69294 18.8334 8.41668 18.8334ZM16.75 18.8334C16.544 18.8334 16.3426 18.7723 16.1713 18.6578C16 18.5434 15.8665 18.3807 15.7876 18.1903C15.7088 18 15.6882 17.7906 15.7284 17.5885C15.7686 17.3864 15.8678 17.2008 16.0134 17.0551C16.1591 16.9095 16.3447 16.8102 16.5468 16.7701C16.7489 16.7299 16.9583 16.7505 17.1486 16.8293C17.339 16.9082 17.5017 17.0417 17.6161 17.213C17.7306 17.3843 17.7917 17.5857 17.7917 17.7917C17.7917 18.068 17.6819 18.3329 17.4866 18.5283C17.2912 18.7236 17.0263 18.8334 16.75 18.8334Z" fill="#292A33"/>
</svg>
