<svg width="21" height="21" viewBox="0 0 21 21" fill="none" xmlns="http://www.w3.org/2000/svg">
<path d="M19.8749 14.6667H5.29158C5.01532 14.6667 4.75037 14.5569 4.55502 14.3616C4.35967 14.1662 4.24992 13.9013 4.24992 13.625C4.24992 13.3487 4.35967 13.0838 4.55502 12.8884C4.75037 12.6931 5.01532 12.5833 5.29158 12.5833H16.1666C16.8631 12.5834 17.5397 12.3507 18.0888 11.9223C18.638 11.4939 19.0284 10.8943 19.1978 10.2188L20.9166 3.45833C20.9556 3.30459 20.959 3.14397 20.9265 2.98872C20.894 2.83347 20.8265 2.68769 20.7291 2.5625C20.6278 2.4341 20.4977 2.33135 20.3493 2.26258C20.2009 2.19382 20.0384 2.16096 19.8749 2.16667H5.04159C4.82668 1.5588 4.42901 1.03229 3.90311 0.659312C3.37721 0.286332 2.74882 0.085146 2.10409 0.083334H1.12492C0.848651 0.083334 0.583699 0.193081 0.388349 0.388431C0.192999 0.583781 0.083252 0.848733 0.083252 1.125C0.083252 1.40127 0.192999 1.66622 0.388349 1.86157C0.583699 2.05692 0.848651 2.16667 1.12492 2.16667H2.10409C2.34204 2.15973 2.57519 2.23451 2.76472 2.37856C2.95425 2.5226 3.08872 2.72721 3.14575 2.95833L3.20825 3.45833L5.01033 10.5C4.18153 10.5373 3.40149 10.9023 2.84181 11.5147C2.28214 12.1272 1.98866 12.9368 2.02596 13.7656C2.06326 14.5944 2.42826 15.3745 3.04069 15.9341C3.65311 16.4938 4.46278 16.7873 5.29158 16.75H5.47908C5.30777 17.222 5.25272 17.7284 5.3186 18.2262C5.38447 18.724 5.56934 19.1986 5.85754 19.6097C6.14574 20.0209 6.52879 20.3566 6.97424 20.5884C7.4197 20.8202 7.91445 20.9412 8.41658 20.9412C8.91873 20.9412 9.41347 20.8202 9.85893 20.5884C10.3044 20.3566 10.6874 20.0209 10.9756 19.6097C11.2638 19.1986 11.4487 18.724 11.5146 18.2262C11.5805 17.7284 11.5254 17.222 11.3541 16.75H13.8124C13.6411 17.222 13.5861 17.7284 13.6519 18.2262C13.7178 18.724 13.9027 19.1986 14.1909 19.6097C14.4791 20.0209 14.8621 20.3566 15.3076 20.5884C15.753 20.8202 16.2478 20.9412 16.7499 20.9412C17.2521 20.9412 17.7468 20.8202 18.1923 20.5884C18.6377 20.3566 19.0208 20.0209 19.309 19.6097C19.5972 19.1986 19.782 18.724 19.8479 18.2262C19.9138 17.7284 19.8587 17.222 19.6874 16.75H19.8749C20.1512 16.75 20.4161 16.6403 20.6115 16.4449C20.8068 16.2496 20.9166 15.9846 20.9166 15.7083C20.9166 15.4321 20.8068 15.1671 20.6115 14.9718C20.4161 14.7764 20.1512 14.6667 19.8749 14.6667ZM18.5416 4.25L17.177 9.70833C17.12 9.93946 16.9855 10.1441 16.796 10.2881C16.6064 10.4322 16.3733 10.5069 16.1353 10.5H7.14575L5.58325 4.25H18.5416ZM8.41658 18.8333C8.21056 18.8333 8.00917 18.7722 7.83787 18.6578C7.66656 18.5433 7.53305 18.3806 7.45421 18.1903C7.37537 18 7.35474 17.7905 7.39493 17.5884C7.43513 17.3864 7.53434 17.2008 7.68002 17.0551C7.8257 16.9094 8.0113 16.8102 8.21337 16.77C8.41543 16.7298 8.62487 16.7505 8.81521 16.8293C9.00555 16.9081 9.16824 17.0416 9.2827 17.2129C9.39716 17.3843 9.45825 17.5856 9.45825 17.7917C9.45825 18.0679 9.34851 18.3329 9.15315 18.5282C8.9578 18.7236 8.69285 18.8333 8.41658 18.8333ZM16.7499 18.8333C16.5439 18.8333 16.3425 18.7722 16.1712 18.6578C15.9999 18.5433 15.8664 18.3806 15.7875 18.1903C15.7087 18 15.6881 17.7905 15.7283 17.5884C15.7685 17.3864 15.8677 17.2008 16.0133 17.0551C16.159 16.9094 16.3446 16.8102 16.5467 16.77C16.7488 16.7298 16.9582 16.7505 17.1485 16.8293C17.3389 16.9081 17.5016 17.0416 17.616 17.2129C17.7305 17.3843 17.7916 17.5856 17.7916 17.7917C17.7916 18.0679 17.6818 18.3329 17.4865 18.5282C17.2911 18.7236 17.0262 18.8333 16.7499 18.8333Z" fill="#292A33"/>
</svg>
