<svg width="10" height="13" viewBox="0 0 10 13" fill="none" xmlns="http://www.w3.org/2000/svg">
<path d="M3.125 5.25H3.75C3.91576 5.25 4.07473 5.18415 4.19194 5.06694C4.30915 4.94973 4.375 4.79076 4.375 4.625C4.375 4.45924 4.30915 4.30027 4.19194 4.18306C4.07473 4.06585 3.91576 4 3.75 4H3.125C2.95924 4 2.80027 4.06585 2.68306 4.18306C2.56585 4.30027 2.5 4.45924 2.5 4.625C2.5 4.79076 2.56585 4.94973 2.68306 5.06694C2.80027 5.18415 2.95924 5.25 3.125 5.25ZM3.125 6.5C2.95924 6.5 2.80027 6.56585 2.68306 6.68306C2.56585 6.80027 2.5 6.95924 2.5 7.125C2.5 7.29076 2.56585 7.44973 2.68306 7.56694C2.80027 7.68415 2.95924 7.75 3.125 7.75H6.875C7.04076 7.75 7.19973 7.68415 7.31694 7.56694C7.43415 7.44973 7.5 7.29076 7.5 7.125C7.5 6.95924 7.43415 6.80027 7.31694 6.68306C7.19973 6.56585 7.04076 6.5 6.875 6.5H3.125ZM10 4.5875C9.99349 4.53008 9.98092 4.47352 9.9625 4.41875V4.3625C9.93245 4.29824 9.89236 4.23917 9.84375 4.1875L6.09375 0.4375C6.04208 0.388885 5.98301 0.348801 5.91875 0.31875C5.90009 0.3161 5.88116 0.3161 5.8625 0.31875C5.79901 0.282338 5.72889 0.258965 5.65625 0.25H1.875C1.37772 0.25 0.900806 0.447544 0.549175 0.799175C0.197544 1.15081 0 1.62772 0 2.125V10.875C0 11.3723 0.197544 11.8492 0.549175 12.2008C0.900806 12.5525 1.37772 12.75 1.875 12.75H8.125C8.62228 12.75 9.09919 12.5525 9.45083 12.2008C9.80246 11.8492 10 11.3723 10 10.875V4.625C10 4.625 10 4.625 10 4.5875ZM6.25 2.38125L7.86875 4H6.875C6.70924 4 6.55027 3.93415 6.43306 3.81694C6.31585 3.69973 6.25 3.54076 6.25 3.375V2.38125ZM8.75 10.875C8.75 11.0408 8.68415 11.1997 8.56694 11.3169C8.44973 11.4342 8.29076 11.5 8.125 11.5H1.875C1.70924 11.5 1.55027 11.4342 1.43306 11.3169C1.31585 11.1997 1.25 11.0408 1.25 10.875V2.125C1.25 1.95924 1.31585 1.80027 1.43306 1.68306C1.55027 1.56585 1.70924 1.5 1.875 1.5H5V3.375C5 3.87228 5.19754 4.34919 5.54917 4.70083C5.90081 5.05246 6.37772 5.25 6.875 5.25H8.75V10.875ZM6.875 9H3.125C2.95924 9 2.80027 9.06585 2.68306 9.18306C2.56585 9.30027 2.5 9.45924 2.5 9.625C2.5 9.79076 2.56585 9.94973 2.68306 10.0669C2.80027 10.1842 2.95924 10.25 3.125 10.25H6.875C7.04076 10.25 7.19973 10.1842 7.31694 10.0669C7.43415 9.94973 7.5 9.79076 7.5 9.625C7.5 9.45924 7.43415 9.30027 7.31694 9.18306C7.19973 9.06585 7.04076 9 6.875 9Z" fill="#7F7F7F"/>
</svg>
