<svg width="13" height="13" viewBox="0 0 13 13" fill="none" xmlns="http://www.w3.org/2000/svg">
<path d="M10.875 1.5H10.25V0.875C10.25 0.70924 10.1842 0.550268 10.0669 0.433058C9.94973 0.315848 9.79076 0.25 9.625 0.25C9.45924 0.25 9.30027 0.315848 9.18306 0.433058C9.06585 0.550268 9 0.70924 9 0.875V1.5H4V0.875C4 0.70924 3.93415 0.550268 3.81694 0.433058C3.69973 0.315848 3.54076 0.25 3.375 0.25C3.20924 0.25 3.05027 0.315848 2.93306 0.433058C2.81585 0.550268 2.75 0.70924 2.75 0.875V1.5H2.125C1.62772 1.5 1.15081 1.69754 0.799175 2.04917C0.447544 2.40081 0.25 2.87772 0.25 3.375V10.875C0.25 11.3723 0.447544 11.8492 0.799175 12.2008C1.15081 12.5525 1.62772 12.75 2.125 12.75H10.875C11.3723 12.75 11.8492 12.5525 12.2008 12.2008C12.5525 11.8492 12.75 11.3723 12.75 10.875V3.375C12.75 2.87772 12.5525 2.40081 12.2008 2.04917C11.8492 1.69754 11.3723 1.5 10.875 1.5ZM11.5 10.875C11.5 11.0408 11.4342 11.1997 11.3169 11.3169C11.1997 11.4342 11.0408 11.5 10.875 11.5H2.125C1.95924 11.5 1.80027 11.4342 1.68306 11.3169C1.56585 11.1997 1.5 11.0408 1.5 10.875V5.25H11.5V10.875ZM11.5 4H1.5V3.375C1.5 3.20924 1.56585 3.05027 1.68306 2.93306C1.80027 2.81585 1.95924 2.75 2.125 2.75H10.875C11.0408 2.75 11.1997 2.81585 11.3169 2.93306C11.4342 3.05027 11.5 3.20924 11.5 3.375V4Z" fill="#7F7F7F"/>
</svg>
