<svg width="20" height="20" viewBox="0 0 20 20" fill="none" xmlns="http://www.w3.org/2000/svg">
<path d="M19.6564 9.56549C19.616 9.51435 18.647 8.29871 16.9856 7.07816C14.7656 5.4471 12.35 4.58496 9.99993 4.58496C7.65 4.58496 5.23438 5.4471 3.01426 7.07816C1.35295 8.29866 0.383892 9.51435 0.34348 9.56549L0 9.99991L0.343524 10.4344C0.383936 10.4855 1.35299 11.7012 3.01431 12.9217C5.23443 14.5528 7.65004 15.4149 9.99998 15.4149C12.35 15.4149 14.7656 14.5528 16.9856 12.9217C18.647 11.7012 19.616 10.4855 19.6564 10.4344L20 9.99991L19.6564 9.56549ZM9.99993 13.7934C7.90823 13.7934 6.20646 12.0917 6.20646 9.99991C6.20646 9.67219 6.24823 9.35406 6.32673 9.05051L5.46066 8.90475C5.3758 9.25612 5.33079 9.62284 5.33079 9.99991C5.33079 11.3511 5.90795 12.5698 6.82836 13.4232C5.64354 12.9855 4.63604 12.3714 3.87566 11.8159C2.93361 11.1279 2.22761 10.432 1.82511 9.99991C2.22778 9.56768 2.9337 8.87187 3.87566 8.18386C4.63604 7.62843 5.64358 7.01428 6.82836 6.57658L7.40936 7.23149C8.08792 6.5961 8.99922 6.20643 9.99993 6.20643C12.0916 6.20643 13.7934 7.90816 13.7934 9.99991C13.7934 12.0917 12.0916 13.7934 9.99993 13.7934ZM16.1242 11.8159C15.3637 12.3714 14.3563 12.9855 13.1715 13.4232C14.0919 12.5699 14.669 11.3511 14.669 9.99986C14.669 8.64862 14.0919 7.42991 13.1715 6.57653C14.3563 7.01423 15.3637 7.62838 16.1242 8.18382C17.0663 8.87187 17.7723 9.56776 18.1748 9.99982C17.7721 10.4321 17.0662 11.128 16.1242 11.8159Z" fill="black"/>
<path d="M7.58584 9.26239C7.51465 9.49571 7.47607 9.74322 7.47607 9.99983C7.47607 11.3936 8.60599 12.5236 9.99983 12.5236C11.3936 12.5236 12.5235 11.3937 12.5235 9.99983C12.5235 8.60599 11.3936 7.47607 9.99983 7.47607C9.32093 7.47607 8.70512 7.74464 8.25148 8.18072L9.49632 9.58389L7.58584 9.26239Z" fill="black"/>
</svg>
