<svg width="20" height="20" viewBox="0 0 20 20" fill="none" xmlns="http://www.w3.org/2000/svg">
<path d="M18.8528 6.21694C18.3411 3.64329 16.5117 1.98438 14.1551 1.98438C12.8373 1.98438 11.4109 2.52701 10.0156 3.55027C8.60471 2.496 7.17835 1.95337 5.84502 1.95337C3.48843 1.95337 1.64347 3.62779 1.14734 6.23244C0.403159 10.0929 2.79076 15.2247 9.783 18.0154C9.86052 18.0464 9.93804 18.0619 10.0156 18.0619C10.0931 18.0619 10.1706 18.0464 10.2481 18.0154C17.2249 15.1627 19.597 10.0464 18.8528 6.21694ZM10.0156 16.7441C3.87603 14.2014 1.752 9.76732 2.38765 6.465C2.75975 4.49601 4.12409 3.20918 5.84502 3.20918C7.00781 3.20918 8.31014 3.76732 9.61246 4.83709C9.84502 5.02314 10.1706 5.02314 10.4032 4.83709C11.7055 3.79833 12.9923 3.25569 14.1551 3.25569C15.876 3.25569 17.2249 4.51151 17.6125 6.465C18.2481 9.73632 16.1396 14.1549 10.0156 16.7441Z" fill="black"/>
</svg>
