<svg width="21" height="21" viewBox="0 0 21 21" fill="none" xmlns="http://www.w3.org/2000/svg">
<path d="M20.6145 19.1354L16.75 15.3021C18.2501 13.4317 18.9765 11.0576 18.78 8.66802C18.5834 6.27844 17.4788 4.05498 15.6932 2.45484C13.9076 0.854693 11.5768 -0.000510752 9.18009 0.065073C6.78334 0.130657 4.5028 1.11204 2.8074 2.80744C1.11201 4.50283 0.130619 6.78337 0.0650349 9.18013C-0.000548914 11.5769 0.854655 13.9077 2.4548 15.6932C4.05494 17.4788 6.2784 18.5835 8.66798 18.78C11.0576 18.9766 13.4316 18.2501 15.302 16.75L19.1354 20.5833C19.2322 20.681 19.3474 20.7585 19.4744 20.8113C19.6013 20.8642 19.7375 20.8915 19.875 20.8915C20.0125 20.8915 20.1486 20.8642 20.2756 20.8113C20.4025 20.7585 20.5177 20.681 20.6145 20.5833C20.8023 20.3891 20.9072 20.1295 20.9072 19.8594C20.9072 19.5892 20.8023 19.3297 20.6145 19.1354ZM9.4583 16.75C8.01614 16.75 6.60637 16.3224 5.40726 15.5211C4.20815 14.7199 3.27356 13.5811 2.72167 12.2487C2.16978 10.9164 2.02539 9.45024 2.30674 8.0358C2.58809 6.62135 3.28255 5.3221 4.30231 4.30235C5.32207 3.28259 6.62132 2.58812 8.03576 2.30677C9.45021 2.02542 10.9163 2.16982 12.2487 2.72171C13.5811 3.2736 14.7199 4.20819 15.5211 5.4073C16.3223 6.60641 16.75 8.01618 16.75 9.45833C16.75 11.3922 15.9817 13.2469 14.6143 14.6143C13.2468 15.9818 11.3922 16.75 9.4583 16.75Z" fill="#292A33"/>
</svg>
