<svg width="21" height="21" viewBox="0 0 21 21" fill="none" xmlns="http://www.w3.org/2000/svg">
<path d="M14.3645 11.2396C15.3858 10.4361 16.1312 9.33429 16.4971 8.08744C16.8629 6.84058 16.8311 5.51069 16.406 4.28278C15.9808 3.05486 15.1835 1.98999 14.125 1.23631C13.0665 0.482623 11.7994 0.0776081 10.4999 0.0776081C9.20051 0.0776081 7.93339 0.482623 6.87486 1.23631C5.81634 1.98999 5.01904 3.05486 4.59391 4.28278C4.16877 5.51069 4.13693 6.84058 4.50281 8.08744C4.8687 9.33429 5.61411 10.4361 6.63535 11.2396C4.88543 11.9407 3.35857 13.1035 2.21753 14.6041C1.0765 16.1047 0.364064 17.8868 0.156186 19.7604C0.141138 19.8972 0.153182 20.0356 0.191629 20.1678C0.230075 20.2999 0.294172 20.4232 0.38026 20.5305C0.554122 20.7474 0.807002 20.8863 1.08327 20.9167C1.35954 20.9471 1.63656 20.8665 1.8534 20.6926C2.07024 20.5187 2.20913 20.2658 2.23952 19.9896C2.46825 17.9533 3.43919 16.0727 4.96683 14.7071C6.49447 13.3414 8.47171 12.5865 10.5208 12.5865C12.5698 12.5865 14.5471 13.3414 16.0747 14.7071C17.6023 16.0727 18.5733 17.9533 18.802 19.9896C18.8303 20.2455 18.9525 20.4819 19.1448 20.6531C19.3372 20.8243 19.5862 20.9182 19.8437 20.9167H19.9583C20.2313 20.8852 20.4809 20.7472 20.6526 20.5325C20.8243 20.3179 20.9042 20.0441 20.8749 19.7708C20.6661 17.8919 19.9498 16.1052 18.8029 14.6023C17.656 13.0994 16.1217 11.937 14.3645 11.2396V11.2396ZM10.4999 10.5C9.67585 10.5 8.87026 10.2556 8.18506 9.79779C7.49985 9.33995 6.9658 8.68921 6.65044 7.92785C6.33507 7.16649 6.25256 6.32871 6.41333 5.52046C6.5741 4.7122 6.97094 3.96977 7.55366 3.38705C8.13638 2.80434 8.87881 2.4075 9.68706 2.24673C10.4953 2.08596 11.3331 2.16847 12.0945 2.48383C12.8558 2.7992 13.5066 3.33325 13.9644 4.01846C14.4222 4.70366 14.6666 5.50924 14.6666 6.33333C14.6666 7.4384 14.2276 8.49821 13.4462 9.27961C12.6648 10.061 11.605 10.5 10.4999 10.5Z" fill="#292A33"/>
</svg>
